<svg xmlns="http://www.w3.org/2000/svg" version="1.1" xmlns:xlink="http://www.w3.org/1999/xlink" xmlns:svgjs="http://svgjs.dev/svgjs" viewBox="0 0 800 800"><defs><linearGradient x1="50%" y1="0%" x2="50%" y2="100%" id="ffflurry-grad" gradientTransform="rotate(270)"><stop stop-color="hsl(238, 82%, 13%)" stop-opacity="1" offset="0%"></stop><stop stop-color="hsl(1.4, 100%, 67%)" stop-opacity="1" offset="45%"></stop><stop stop-color="hsl(167, 52%, 78%)" stop-opacity="1" offset="100%"></stop></linearGradient></defs><rect width="100%" height="100%" fill="hsl(238, 82%, 13%)"></rect><g fill="url(#ffflurry-grad)"><rect width="724" height="3" x="118" y="515.5" rx="1.5" transform="rotate(46, 480, 517)" opacity="0.37"></rect><rect width="243" height="3" x="253.5" y="408.5" rx="1.5" transform="rotate(46, 375, 410)" opacity="0.44"></rect><rect width="203" height="3" x="-8.5" y="702.5" rx="1.5" transform="rotate(46, 93, 704)" opacity="0.16"></rect><rect width="67" height="3" x="177.5" y="364.5" rx="1.5" transform="rotate(46, 211, 366)" opacity="0.88"></rect><rect width="202" height="3" x="655" y="731.5" rx="1.5" transform="rotate(46, 756, 733)" opacity="0.28"></rect><rect width="474" height="3" x="-88" y="521.5" rx="1.5" transform="rotate(46, 149, 523)" opacity="0.15"></rect><rect width="58" height="3" x="208" y="595.5" rx="1.5" transform="rotate(46, 237, 597)" opacity="0.37"></rect><rect width="429" height="3" x="454.5" y="644.5" rx="1.5" transform="rotate(46, 669, 646)" opacity="0.72"></rect><rect width="350" height="3" x="577" y="608.5" rx="1.5" transform="rotate(46, 752, 610)" opacity="0.48"></rect><rect width="226" height="3" x="273" y="239.5" rx="1.5" transform="rotate(46, 386, 241)" opacity="0.08"></rect><rect width="185" height="3" x="507.5" y="561.5" rx="1.5" transform="rotate(46, 600, 563)" opacity="0.61"></rect><rect width="133" height="3" x="446.5" y="350.5" rx="1.5" transform="rotate(46, 513, 352)" opacity="0.99"></rect><rect width="299" height="3" x="45.5" y="198.5" rx="1.5" transform="rotate(46, 195, 200)" opacity="0.67"></rect><rect width="402" height="3" x="492" y="494.5" rx="1.5" transform="rotate(46, 693, 496)" opacity="0.52"></rect><rect width="209" height="3" x="289.5" y="159.5" rx="1.5" transform="rotate(46, 394, 161)" opacity="0.17"></rect><rect width="73" height="3" x="63.5" y="193.5" rx="1.5" transform="rotate(46, 100, 195)" opacity="0.84"></rect><rect width="538" height="3" x="331" y="431.5" rx="1.5" transform="rotate(46, 600, 433)" opacity="0.12"></rect><rect width="249" height="3" x="114.5" y="247.5" rx="1.5" transform="rotate(46, 239, 249)" opacity="0.96"></rect><rect width="289" height="3" x="282.5" y="96.5" rx="1.5" transform="rotate(46, 427, 98)" opacity="0.37"></rect><rect width="235" height="3" x="279.5" y="35.5" rx="1.5" transform="rotate(46, 397, 37)" opacity="0.93"></rect><rect width="290" height="3" x="505" y="32.5" rx="1.5" transform="rotate(46, 650, 34)" opacity="0.28"></rect><rect width="202" height="3" x="-71" y="752.5" rx="1.5" transform="rotate(46, 30, 754)" opacity="0.91"></rect><rect width="224" height="3" x="357" y="228.5" rx="1.5" transform="rotate(46, 469, 230)" opacity="0.57"></rect><rect width="284" height="3" x="392" y="726.5" rx="1.5" transform="rotate(46, 534, 728)" opacity="0.95"></rect><rect width="145" height="3" x="208.5" y="400.5" rx="1.5" transform="rotate(46, 281, 402)" opacity="0.65"></rect><rect width="375" height="3" x="-157.5" y="226.5" rx="1.5" transform="rotate(46, 30, 228)" opacity="0.20"></rect><rect width="165" height="3" x="518.5" y="200.5" rx="1.5" transform="rotate(46, 601, 202)" opacity="0.29"></rect><rect width="423" height="3" x="383.5" y="309.5" rx="1.5" transform="rotate(46, 595, 311)" opacity="0.55"></rect><rect width="423" height="3" x="35.5" y="484.5" rx="1.5" transform="rotate(46, 247, 486)" opacity="0.44"></rect><rect width="187" height="3" x="282.5" y="719.5" rx="1.5" transform="rotate(46, 376, 721)" opacity="0.09"></rect><rect width="67" height="3" x="234.5" y="42.5" rx="1.5" transform="rotate(46, 268, 44)" opacity="0.94"></rect><rect width="320" height="3" x="512" y="751.5" rx="1.5" transform="rotate(46, 672, 753)" opacity="0.58"></rect><rect width="192" height="3" x="78" y="40.5" rx="1.5" transform="rotate(46, 174, 42)" opacity="1.00"></rect><rect width="376" height="3" x="36" y="125.5" rx="1.5" transform="rotate(46, 224, 127)" opacity="0.26"></rect><rect width="126" height="3" x="344" y="774.5" rx="1.5" transform="rotate(46, 407, 776)" opacity="0.79"></rect><rect width="357" height="3" x="49.5" y="755.5" rx="1.5" transform="rotate(46, 228, 757)" opacity="0.32"></rect><rect width="38" height="3" x="462" y="144.5" rx="1.5" transform="rotate(46, 481, 146)" opacity="1.00"></rect><rect width="172" height="3" x="511" y="755.5" rx="1.5" transform="rotate(46, 597, 757)" opacity="0.91"></rect><rect width="284" height="3" x="-91" y="423.5" rx="1.5" transform="rotate(46, 51, 425)" opacity="0.93"></rect><rect width="550" height="3" x="180" y="639.5" rx="1.5" transform="rotate(46, 455, 641)" opacity="0.28"></rect><rect width="328" height="3" x="489" y="117.5" rx="1.5" transform="rotate(46, 653, 119)" opacity="0.30"></rect><rect width="182" height="3" x="373" y="734.5" rx="1.5" transform="rotate(46, 464, 736)" opacity="0.42"></rect><rect width="491" height="3" x="426.5" y="246.5" rx="1.5" transform="rotate(46, 672, 248)" opacity="0.71"></rect><rect width="93" height="3" x="136.5" y="694.5" rx="1.5" transform="rotate(46, 183, 696)" opacity="0.26"></rect><rect width="88" height="3" x="530" y="659.5" rx="1.5" transform="rotate(46, 574, 661)" opacity="0.40"></rect><rect width="396" height="3" x="135" y="633.5" rx="1.5" transform="rotate(46, 333, 635)" opacity="0.48"></rect><rect width="371" height="3" x="-154.5" y="646.5" rx="1.5" transform="rotate(46, 31, 648)" opacity="0.81"></rect><rect width="363" height="3" x="566.5" y="49.5" rx="1.5" transform="rotate(46, 748, 51)" opacity="0.52"></rect><rect width="186" height="3" x="18" y="276.5" rx="1.5" transform="rotate(46, 111, 278)" opacity="0.53"></rect><rect width="455" height="3" x="86.5" y="301.5" rx="1.5" transform="rotate(46, 314, 303)" opacity="0.58"></rect><rect width="258" height="3" x="172" y="198.5" rx="1.5" transform="rotate(46, 301, 200)" opacity="0.07"></rect><rect width="63" height="3" x="445.5" y="27.5" rx="1.5" transform="rotate(46, 477, 29)" opacity="0.08"></rect><rect width="346" height="3" x="-7" y="436.5" rx="1.5" transform="rotate(46, 166, 438)" opacity="0.13"></rect><rect width="485" height="3" x="-188.5" y="64.5" rx="1.5" transform="rotate(46, 54, 66)" opacity="0.15"></rect><rect width="258" height="3" x="302" y="342.5" rx="1.5" transform="rotate(46, 431, 344)" opacity="0.58"></rect><rect width="520" height="3" x="477" y="333.5" rx="1.5" transform="rotate(46, 737, 335)" opacity="0.67"></rect><rect width="395" height="3" x="-79.5" y="614.5" rx="1.5" transform="rotate(46, 118, 616)" opacity="0.11"></rect><rect width="83" height="3" x="43.5" y="347.5" rx="1.5" transform="rotate(46, 85, 349)" opacity="0.82"></rect><rect width="116" height="3" x="457" y="80.5" rx="1.5" transform="rotate(46, 515, 82)" opacity="0.93"></rect><rect width="471" height="3" x="117.5" y="514.5" rx="1.5" transform="rotate(46, 353, 516)" opacity="0.67"></rect><rect width="87" height="3" x="706.5" y="169.5" rx="1.5" transform="rotate(46, 750, 171)" opacity="0.70"></rect><rect width="245" height="3" x="409.5" y="222.5" rx="1.5" transform="rotate(46, 532, 224)" opacity="0.33"></rect><rect width="115" height="3" x="280.5" y="52.5" rx="1.5" transform="rotate(46, 338, 54)" opacity="0.34"></rect><rect width="165" height="3" x="222.5" y="744.5" rx="1.5" transform="rotate(46, 305, 746)" opacity="0.25"></rect><rect width="164" height="3" x="426" y="779.5" rx="1.5" transform="rotate(46, 508, 781)" opacity="0.42"></rect><rect width="124" height="3" x="705" y="471.5" rx="1.5" transform="rotate(46, 767, 473)" opacity="0.59"></rect><rect width="329" height="3" x="-30.5" y="128.5" rx="1.5" transform="rotate(46, 134, 130)" opacity="0.11"></rect><rect width="420" height="3" x="-162" y="533.5" rx="1.5" transform="rotate(46, 48, 535)" opacity="0.59"></rect><rect width="161" height="3" x="490.5" y="40.5" rx="1.5" transform="rotate(46, 571, 42)" opacity="0.61"></rect><rect width="190" height="3" x="18" y="770.5" rx="1.5" transform="rotate(46, 113, 772)" opacity="0.98"></rect><rect width="308" height="3" x="154" y="125.5" rx="1.5" transform="rotate(46, 308, 127)" opacity="0.50"></rect><rect width="41" height="3" x="173.5" y="299.5" rx="1.5" transform="rotate(46, 194, 301)" opacity="0.25"></rect><rect width="206" height="3" x="459" y="134.5" rx="1.5" transform="rotate(46, 562, 136)" opacity="0.53"></rect></g></svg>