<svg xmlns="http://www.w3.org/2000/svg" version="1.1" xmlns:xlink="http://www.w3.org/1999/xlink" xmlns:svgjs="http://svgjs.dev/svgjs" viewBox="0 0 800 800" opacity="0.55"><defs><linearGradient x1="50%" y1="0%" x2="50%" y2="100%" id="ggglitch-grad"><stop stop-color="hsl(206, 75%, 49%)" stop-opacity="1" offset="45%"></stop><stop stop-color="hsl(331, 90%, 56%)" stop-opacity="1" offset="100%"></stop></linearGradient><clipPath id="SvgjsClipPath1426"><rect width="50" height="800" x="0" y="0"></rect><rect width="50" height="800" x="100" y="0"></rect><rect width="50" height="800" x="200" y="0"></rect><rect width="50" height="800" x="300" y="0"></rect><rect width="50" height="800" x="400" y="0"></rect><rect width="50" height="800" x="500" y="0"></rect><rect width="50" height="800" x="600" y="0"></rect><rect width="50" height="800" x="700" y="0"></rect><rect width="50" height="800" x="800" y="0"></rect><rect width="50" height="800" x="900" y="0"></rect><rect width="50" height="800" x="1000" y="0"></rect><rect width="50" height="800" x="1100" y="0"></rect><rect width="50" height="800" x="1200" y="0"></rect><rect width="50" height="800" x="1300" y="0"></rect><rect width="50" height="800" x="1400" y="0"></rect><rect width="50" height="800" x="1500" y="0"></rect><rect width="50" height="800" x="1600" y="0"></rect></clipPath><clipPath id="SvgjsClipPath1427"><rect width="50" height="800" x="50" y="0"></rect><rect width="50" height="800" x="150" y="0"></rect><rect width="50" height="800" x="250" y="0"></rect><rect width="50" height="800" x="350" y="0"></rect><rect width="50" height="800" x="450" y="0"></rect><rect width="50" height="800" x="550" y="0"></rect><rect width="50" height="800" x="650" y="0"></rect><rect width="50" height="800" x="750" y="0"></rect><rect width="50" height="800" x="850" y="0"></rect><rect width="50" height="800" x="950" y="0"></rect><rect width="50" height="800" x="1050" y="0"></rect><rect width="50" height="800" x="1150" y="0"></rect><rect width="50" height="800" x="1250" y="0"></rect><rect width="50" height="800" x="1350" y="0"></rect><rect width="50" height="800" x="1450" y="0"></rect><rect width="50" height="800" x="1550" y="0"></rect></clipPath></defs><g stroke-width="36" stroke="url(#ggglitch-grad)" fill="none"><circle r="338.5" cx="400" cy="400" fill="none" opacity="0.25" clip-path="url(&quot;#SvgjsClipPath1426&quot;)"></circle><circle r="247" cx="400" cy="400" fill="none" opacity="0.25" clip-path="url(&quot;#SvgjsClipPath1426&quot;)"></circle><circle r="155.5" cx="400" cy="400" fill="none" opacity="0.25" clip-path="url(&quot;#SvgjsClipPath1426&quot;)"></circle><circle r="64" cx="400" cy="400" fill="none" opacity="0.25" clip-path="url(&quot;#SvgjsClipPath1426&quot;)"></circle><circle r="382" cx="400" cy="400" fill="none" clip-path="url(&quot;#SvgjsClipPath1427&quot;)"></circle><circle r="290.5" cx="400" cy="400" fill="none" clip-path="url(&quot;#SvgjsClipPath1427&quot;)"></circle><circle r="199" cx="400" cy="400" fill="none" clip-path="url(&quot;#SvgjsClipPath1427&quot;)"></circle><circle r="107.5" cx="400" cy="400" fill="none" clip-path="url(&quot;#SvgjsClipPath1427&quot;)"></circle></g></svg>