<svg xmlns="http://www.w3.org/2000/svg" version="1.1" xmlns:xlink="http://www.w3.org/1999/xlink" xmlns:svgjs="http://svgjs.dev/svgjs" viewBox="0 0 1422 800" opacity="0.7"><g fill="none" stroke-width="3" stroke="hsl(205, 69%, 50%)" stroke-linecap="round" stroke-dasharray="0 1.5" transform="matrix(1.5,0,0,1.5,-355.4999771118164,-200.00001525878906)"><line x1="1212" y1="400" x2="210" y2="400" transform="rotate(0, 711, 400)" opacity="0.79"></line><line x1="733.5" y1="400" x2="688.5" y2="400" transform="rotate(4, 711, 400)" opacity="0.87"></line><line x1="1019.5" y1="400" x2="402.5" y2="400" transform="rotate(8, 711, 400)" opacity="0.90"></line><line x1="875" y1="400" x2="547" y2="400" transform="rotate(12, 711, 400)" opacity="0.27"></line><line x1="551.5" y1="400" x2="870.5" y2="400" transform="rotate(16, 711, 400)" opacity="0.34"></line><line x1="739.5" y1="400" x2="682.5" y2="400" transform="rotate(20, 711, 400)" opacity="0.23"></line><line x1="666" y1="400" x2="756" y2="400" transform="rotate(24, 711, 400)" opacity="0.53"></line><line x1="486" y1="400" x2="936" y2="400" transform="rotate(28, 711, 400)" opacity="0.98"></line><line x1="750.5" y1="400" x2="671.5" y2="400" transform="rotate(32, 711, 400)" opacity="0.75"></line><line x1="983.5" y1="400" x2="438.5" y2="400" transform="rotate(36, 711, 400)" opacity="0.90"></line><line x1="1267.5" y1="400" x2="154.5" y2="400" transform="rotate(40, 711, 400)" opacity="0.98"></line><line x1="792.5" y1="400" x2="629.5" y2="400" transform="rotate(44, 711, 400)" opacity="0.36"></line><line x1="979.5" y1="400" x2="442.5" y2="400" transform="rotate(48, 711, 400)" opacity="0.39"></line><line x1="993" y1="400" x2="429" y2="400" transform="rotate(52, 711, 400)" opacity="0.38"></line><line x1="1187" y1="400" x2="235" y2="400" transform="rotate(56, 711, 400)" opacity="0.66"></line><line x1="489.5" y1="400" x2="932.5" y2="400" transform="rotate(60, 711, 400)" opacity="0.55"></line><line x1="1176.5" y1="400" x2="245.5" y2="400" transform="rotate(64, 711, 400)" opacity="0.11"></line><line x1="1265.5" y1="400" x2="156.5" y2="400" transform="rotate(68, 711, 400)" opacity="0.28"></line><line x1="1128" y1="400" x2="294" y2="400" transform="rotate(72, 711, 400)" opacity="0.85"></line><line x1="967" y1="400" x2="455" y2="400" transform="rotate(76, 711, 400)" opacity="0.72"></line><line x1="582.5" y1="400" x2="839.5" y2="400" transform="rotate(80, 711, 400)" opacity="0.69"></line><line x1="687" y1="400" x2="735" y2="400" transform="rotate(84, 711, 400)" opacity="0.67"></line><line x1="678" y1="400" x2="744" y2="400" transform="rotate(88, 711, 400)" opacity="0.65"></line><line x1="1148.5" y1="400" x2="273.5" y2="400" transform="rotate(92, 711, 400)" opacity="0.86"></line><line x1="645.5" y1="400" x2="776.5" y2="400" transform="rotate(96, 711, 400)" opacity="0.53"></line><line x1="581" y1="400" x2="841" y2="400" transform="rotate(100, 711, 400)" opacity="0.12"></line><line x1="848.5" y1="400" x2="573.5" y2="400" transform="rotate(104, 711, 400)" opacity="0.70"></line><line x1="553.5" y1="400" x2="868.5" y2="400" transform="rotate(108, 711, 400)" opacity="0.64"></line><line x1="794.5" y1="400" x2="627.5" y2="400" transform="rotate(112, 711, 400)" opacity="0.33"></line><line x1="1096" y1="400" x2="326" y2="400" transform="rotate(116, 711, 400)" opacity="0.33"></line><line x1="1345" y1="400" x2="77" y2="400" transform="rotate(120, 711, 400)" opacity="0.17"></line><line x1="994.5" y1="400" x2="427.5" y2="400" transform="rotate(124, 711, 400)" opacity="0.58"></line><line x1="976.5" y1="400" x2="445.5" y2="400" transform="rotate(128, 711, 400)" opacity="0.18"></line><line x1="1359.5" y1="400" x2="62.5" y2="400" transform="rotate(132, 711, 400)" opacity="0.23"></line><line x1="1205" y1="400" x2="217" y2="400" transform="rotate(136, 711, 400)" opacity="0.49"></line><line x1="1319" y1="400" x2="103" y2="400" transform="rotate(140, 711, 400)" opacity="0.85"></line><line x1="1357.5" y1="400" x2="64.5" y2="400" transform="rotate(144, 711, 400)" opacity="0.70"></line><line x1="1204" y1="400" x2="218" y2="400" transform="rotate(148, 711, 400)" opacity="0.38"></line><line x1="1141.5" y1="400" x2="280.5" y2="400" transform="rotate(152, 711, 400)" opacity="0.40"></line><line x1="511.5" y1="400" x2="910.5" y2="400" transform="rotate(156, 711, 400)" opacity="0.74"></line><line x1="633" y1="400" x2="789" y2="400" transform="rotate(160, 711, 400)" opacity="0.12"></line><line x1="746" y1="400" x2="676" y2="400" transform="rotate(164, 711, 400)" opacity="0.72"></line><line x1="1011" y1="400" x2="411" y2="400" transform="rotate(168, 711, 400)" opacity="0.56"></line><line x1="1274" y1="400" x2="148" y2="400" transform="rotate(172, 711, 400)" opacity="0.75"></line><line x1="1086.5" y1="400" x2="335.5" y2="400" transform="rotate(176, 711, 400)" opacity="0.77"></line><line x1="878.5" y1="400" x2="543.5" y2="400" transform="rotate(180, 711, 400)" opacity="0.47"></line><line x1="501" y1="400" x2="921" y2="400" transform="rotate(184, 711, 400)" opacity="0.76"></line><line x1="616.5" y1="400" x2="805.5" y2="400" transform="rotate(188, 711, 400)" opacity="0.15"></line><line x1="492" y1="400" x2="930" y2="400" transform="rotate(192, 711, 400)" opacity="0.29"></line><line x1="859" y1="400" x2="563" y2="400" transform="rotate(196, 711, 400)" opacity="0.36"></line><line x1="927" y1="400" x2="495" y2="400" transform="rotate(200, 711, 400)" opacity="0.35"></line><line x1="1086" y1="400" x2="336" y2="400" transform="rotate(204, 711, 400)" opacity="0.17"></line><line x1="1135.5" y1="400" x2="286.5" y2="400" transform="rotate(208, 711, 400)" opacity="0.78"></line><line x1="913.5" y1="400" x2="508.5" y2="400" transform="rotate(212, 711, 400)" opacity="0.86"></line><line x1="1115" y1="400" x2="307" y2="400" transform="rotate(216, 711, 400)" opacity="0.08"></line><line x1="527.5" y1="400" x2="894.5" y2="400" transform="rotate(220, 711, 400)" opacity="0.41"></line><line x1="1372" y1="400" x2="50" y2="400" transform="rotate(224, 711, 400)" opacity="0.84"></line><line x1="889.5" y1="400" x2="532.5" y2="400" transform="rotate(228, 711, 400)" opacity="0.29"></line><line x1="796.5" y1="400" x2="625.5" y2="400" transform="rotate(232, 711, 400)" opacity="0.88"></line><line x1="1097.5" y1="400" x2="324.5" y2="400" transform="rotate(236, 711, 400)" opacity="0.85"></line><line x1="1332" y1="400" x2="90" y2="400" transform="rotate(240, 711, 400)" opacity="0.50"></line><line x1="540.5" y1="400" x2="881.5" y2="400" transform="rotate(244, 711, 400)" opacity="0.66"></line><line x1="1278" y1="400" x2="144" y2="400" transform="rotate(248, 711, 400)" opacity="0.60"></line><line x1="790.5" y1="400" x2="631.5" y2="400" transform="rotate(252, 711, 400)" opacity="0.60"></line><line x1="1355" y1="400" x2="67" y2="400" transform="rotate(256, 711, 400)" opacity="0.26"></line><line x1="739" y1="400" x2="683" y2="400" transform="rotate(260, 711, 400)" opacity="0.79"></line><line x1="1116.5" y1="400" x2="305.5" y2="400" transform="rotate(264, 711, 400)" opacity="0.11"></line><line x1="1356.5" y1="400" x2="65.5" y2="400" transform="rotate(268, 711, 400)" opacity="0.18"></line><line x1="1075.5" y1="400" x2="346.5" y2="400" transform="rotate(272, 711, 400)" opacity="0.27"></line><line x1="1198" y1="400" x2="224" y2="400" transform="rotate(276, 711, 400)" opacity="0.66"></line><line x1="939.5" y1="400" x2="482.5" y2="400" transform="rotate(280, 711, 400)" opacity="0.33"></line><line x1="663.5" y1="400" x2="758.5" y2="400" transform="rotate(284, 711, 400)" opacity="0.34"></line><line x1="703.5" y1="400" x2="718.5" y2="400" transform="rotate(288, 711, 400)" opacity="0.24"></line><line x1="784" y1="400" x2="638" y2="400" transform="rotate(292, 711, 400)" opacity="0.26"></line><line x1="520" y1="400" x2="902" y2="400" transform="rotate(296, 711, 400)" opacity="0.47"></line><line x1="1141" y1="400" x2="281" y2="400" transform="rotate(300, 711, 400)" opacity="0.61"></line><line x1="876.5" y1="400" x2="545.5" y2="400" transform="rotate(304, 711, 400)" opacity="0.47"></line><line x1="1031" y1="400" x2="391" y2="400" transform="rotate(308, 711, 400)" opacity="0.58"></line><line x1="658.5" y1="400" x2="763.5" y2="400" transform="rotate(312, 711, 400)" opacity="0.24"></line><line x1="1294" y1="400" x2="128" y2="400" transform="rotate(316, 711, 400)" opacity="0.92"></line><line x1="998" y1="400" x2="424" y2="400" transform="rotate(320, 711, 400)" opacity="0.95"></line><line x1="872.5" y1="400" x2="549.5" y2="400" transform="rotate(324, 711, 400)" opacity="0.98"></line><line x1="975" y1="400" x2="447" y2="400" transform="rotate(328, 711, 400)" opacity="0.25"></line><line x1="948" y1="400" x2="474" y2="400" transform="rotate(332, 711, 400)" opacity="0.77"></line><line x1="674.5" y1="400" x2="747.5" y2="400" transform="rotate(336, 711, 400)" opacity="0.09"></line><line x1="719.5" y1="400" x2="702.5" y2="400" transform="rotate(340, 711, 400)" opacity="0.74"></line><line x1="978" y1="400" x2="444" y2="400" transform="rotate(344, 711, 400)" opacity="0.34"></line><line x1="1051" y1="400" x2="371" y2="400" transform="rotate(348, 711, 400)" opacity="0.17"></line><line x1="566.5" y1="400" x2="855.5" y2="400" transform="rotate(352, 711, 400)" opacity="0.94"></line><line x1="1213.5" y1="400" x2="208.5" y2="400" transform="rotate(356, 711, 400)" opacity="0.33"></line><line x1="502" y1="400" x2="920" y2="400" transform="rotate(360, 711, 400)" opacity="0.89"></line><line x1="763.5" y1="400" x2="658.5" y2="400" transform="rotate(364, 711, 400)" opacity="0.98"></line><line x1="1160" y1="400" x2="262" y2="400" transform="rotate(368, 711, 400)" opacity="0.69"></line><line x1="957.5" y1="400" x2="464.5" y2="400" transform="rotate(372, 711, 400)" opacity="0.76"></line><line x1="1084" y1="400" x2="338" y2="400" transform="rotate(376, 711, 400)" opacity="0.99"></line><line x1="803" y1="400" x2="619" y2="400" transform="rotate(380, 711, 400)" opacity="0.34"></line><line x1="770.5" y1="400" x2="651.5" y2="400" transform="rotate(384, 711, 400)" opacity="0.90"></line><line x1="1135.5" y1="400" x2="286.5" y2="400" transform="rotate(388, 711, 400)" opacity="0.85"></line><line x1="810.5" y1="400" x2="611.5" y2="400" transform="rotate(392, 711, 400)" opacity="0.61"></line><line x1="1257" y1="400" x2="165" y2="400" transform="rotate(396, 711, 400)" opacity="0.97"></line><line x1="1135.5" y1="400" x2="286.5" y2="400" transform="rotate(400, 711, 400)" opacity="0.67"></line><line x1="860" y1="400" x2="562" y2="400" transform="rotate(404, 711, 400)" opacity="0.14"></line></g></svg>